<svg width="40" height="40" viewBox="0 0 40 40" fill="none" xmlns="http://www.w3.org/2000/svg">
  <defs>
    <linearGradient id="boxGradient" x1="0%" y1="0%" x2="100%" y2="100%">
      <stop offset="0%" style="stop-color:#3b82f6;stop-opacity:1" />
      <stop offset="100%" style="stop-color:#a855f7;stop-opacity:1" />
    </linearGradient>
  </defs>
  <!-- Background box with gradient -->
  <rect width="40" height="40" rx="8" fill="url(#boxGradient)"/>
  <rect width="40" height="40" rx="8" stroke="rgba(255,255,255,0.1)" stroke-width="1" fill="none"/>
  <!-- Shield Icon -->
  <path d="M28 21c0 5-3.5 7.5-7.66 8.95a1 1 0 0 1-.67-.01C15.5 28.5 12 26 12 21V14a1 1 0 0 1 1-1c2 0 4.5-1.2 6.24-2.72a1.17 1.17 0 0 1 1.52 0C22.51 11.81 25 13 27 13a1 1 0 0 1 1 1z"
        stroke="white"
        stroke-width="2"
        stroke-linecap="round"
        stroke-linejoin="round"/>
</svg>
